<?xml version="1.0" encoding="UTF-8"?>
<svg version="1.1" xmlns="http://www.w3.org/2000/svg" width="192" height="192">
<!-- // forhead -->
<path d="M0 0 C7.39113752 0.96451724 14.92078059 0.88833608 22.36401367 0.98217773 C37.04409002 1.30784673 54.63829465 4.86884877 65.5078125 15.5 C74.7755539 26.0549277 74.7755539 26.0549277 74.73486328 32.80957031 C74.73463669 34.0704245 74.73463669 34.0704245 74.73440552 35.35675049 C74.72408295 36.25480408 74.71376038 37.15285767 74.703125 38.078125 C74.7002951 39.0046991 74.69746521 39.93127319 74.69454956 40.88592529 C74.68336861 43.84074909 74.65826777 46.79526805 74.6328125 49.75 C74.62278001 51.75520395 74.61365463 53.76041266 74.60546875 55.765625 C74.58343608 60.67720051 74.54892045 65.58854859 74.5078125 70.5 C73.23971855 70.99581119 71.96963141 71.48652646 70.69873047 71.97509766 C69.99166962 72.24891266 69.28460876 72.52272766 68.55612183 72.80484009 C61.38282995 75.23932832 53.58788654 73.64882665 46.6640625 71.15625 C44.24568039 70.30589226 44.24568039 70.30589226 40.5078125 70.5 C38.93971599 74.83132451 37.37812919 79.16496937 35.8203125 83.5 C35.5896106 84.14114746 35.35890869 84.78229492 35.12121582 85.44287109 C32.49690852 92.74744538 29.94950824 100.0516516 27.7578125 107.5 C24.42409549 118.39869024 20.31163341 129.05632663 10.00390625 134.92578125 C7.21219171 136.27199921 4.41126796 137.4171539 1.5078125 138.5 C0.68796875 138.82097656 -0.131875 139.14195312 -0.9765625 139.47265625 C-12.11152996 143.19007551 -26.63443775 143.35643118 -37.58984375 139.0234375 C-49.60291516 132.71778763 -58.83781963 123.79828111 -67.57421875 113.5625 C-69.763203 111.20856174 -72.11918389 109.15943585 -74.5546875 107.0625 C-80.37104068 101.87089883 -84.36844404 96.89080561 -86.94140625 89.48046875 C-87.19051758 88.7644751 -87.43962891 88.04848145 -87.69628906 87.31079102 C-88.17580024 85.88167532 -88.62828269 84.44313046 -89.04980469 82.99584961 C-90.34410012 79.01920863 -91.1632851 77.67765256 -94.8984375 75.66015625 C-96.084375 75.27730469 -97.2703125 74.89445312 -98.4921875 74.5 C-105.29687608 71.41883701 -109.67775436 67.9791639 -113.4921875 61.5 C-114.19472656 60.39140625 -114.89726563 59.2828125 -115.62109375 58.140625 C-118.57608126 52.10819608 -118.15042985 45.64116037 -118.1171875 39.0625 C-118.16552734 37.15500977 -118.16552734 37.15500977 -118.21484375 35.20898438 C-118.22339571 26.96062068 -117.1271632 21.65442021 -111.4921875 15.5 C-108.74355647 12.7560917 -105.72779065 10.64030399 -102.4921875 8.5 C-101.90050781 8.09910156 -101.30882813 7.69820312 -100.69921875 7.28515625 C-89.84744935 0.93699093 -74.2679749 0.82595628 -61.9296875 -0.1875 C-61.18527405 -0.25037201 -60.4408606 -0.31324402 -59.67388916 -0.37802124 C-39.85411722 -2.02288209 -19.73096222 -2.91710324 0 0 Z " fill="#02589B" transform="translate(117.4921875,31.5)"/>
<path d="M0 0 C7.39113752 0.96451724 14.92078059 0.88833608 22.36401367 0.98217773 C37.04409002 1.30784673 54.63829465 4.86884877 65.5078125 15.5 C74.7755539 26.0549277 74.7755539 26.0549277 74.73486328 32.80957031 C74.73463669 34.0704245 74.73463669 34.0704245 74.73440552 35.35675049 C74.72408295 36.25480408 74.71376038 37.15285767 74.703125 38.078125 C74.7002951 39.0046991 74.69746521 39.93127319 74.69454956 40.88592529 C74.68336861 43.84074909 74.65826777 46.79526805 74.6328125 49.75 C74.62278001 51.75520395 74.61365463 53.76041266 74.60546875 55.765625 C74.58343608 60.67720051 74.54892045 65.58854859 74.5078125 70.5 C73.23971855 70.99581119 71.96963141 71.48652646 70.69873047 71.97509766 C69.99166962 72.24891266 69.28460876 72.52272766 68.55612183 72.80484009 C61.38282995 75.23932832 53.58788654 73.64882665 46.6640625 71.15625 C44.24568039 70.30589226 44.24568039 70.30589226 40.5078125 70.5 C38.93971599 74.83132451 37.37812919 79.16496937 35.8203125 83.5 C35.5896106 84.14114746 35.35890869 84.78229492 35.12121582 85.44287109 C32.49690852 92.74744538 29.94950824 100.0516516 27.7578125 107.5 C24.42409549 118.39869024 20.31163341 129.05632663 10.00390625 134.92578125 C7.21219171 136.27199921 4.41126796 137.4171539 1.5078125 138.5 C0.68796875 138.82097656 -0.131875 139.14195312 -0.9765625 139.47265625 C-12.11152996 143.19007551 -26.63443775 143.35643118 -37.58984375 139.0234375 C-49.60291516 132.71778763 -58.83781963 123.79828111 -67.57421875 113.5625 C-69.763203 111.20856174 -72.11918389 109.15943585 -74.5546875 107.0625 C-80.37104068 101.87089883 -84.36844404 96.89080561 -86.94140625 89.48046875 C-87.19051758 88.7644751 -87.43962891 88.04848145 -87.69628906 87.31079102 C-88.17580024 85.88167532 -88.62828269 84.44313046 -89.04980469 82.99584961 C-90.34410012 79.01920863 -91.1632851 77.67765256 -94.8984375 75.66015625 C-96.084375 75.27730469 -97.2703125 74.89445312 -98.4921875 74.5 C-105.29687608 71.41883701 -109.67775436 67.9791639 -113.4921875 61.5 C-114.19472656 60.39140625 -114.89726563 59.2828125 -115.62109375 58.140625 C-118.57608126 52.10819608 -118.15042985 45.64116037 -118.1171875 39.0625 C-118.16552734 37.15500977 -118.16552734 37.15500977 -118.21484375 35.20898438 C-118.22339571 26.96062068 -117.1271632 21.65442021 -111.4921875 15.5 C-108.74355647 12.7560917 -105.72779065 10.64030399 -102.4921875 8.5 C-101.90050781 8.09910156 -101.30882813 7.69820312 -100.69921875 7.28515625 C-89.84744935 0.93699093 -74.2679749 0.82595628 -61.9296875 -0.1875 C-61.18527405 -0.25037201 -60.4408606 -0.31324402 -59.67388916 -0.37802124 C-39.85411722 -2.02288209 -19.73096222 -2.91710324 0 0 Z M-102.640625 21.46875 C-107.04787321 26.30370584 -109.66410205 30.71044095 -110.69140625 37.22265625 C-110.18492928 45.55469892 -104.86744498 54.8530511 -98.8046875 60.5 C-95.59489828 62.43798595 -94.14577399 63.16428845 -90.4921875 62.5 C-88.82897176 58.66236369 -87.81895926 54.8957007 -86.9296875 50.8125 C-85.59480319 44.70523139 -85.59480319 44.70523139 -84.4921875 42.5 C-84.32614014 43.70160767 -84.32614014 43.70160767 -84.15673828 44.92749023 C-83.64733144 48.59802895 -83.13230306 52.26775827 -82.6171875 55.9375 C-82.35615234 57.82758789 -82.35615234 57.82758789 -82.08984375 59.75585938 C-79.79781701 76.01227129 -77.19599377 89.02353941 -63.4921875 99.5 C-59.44884785 102.61674098 -56.68934303 105.52686045 -53.6171875 109.625 C-46.52954189 118.24986676 -38.3802943 126.04579399 -26.87109375 127.43359375 C-15.32331892 128.11630079 -3.70257807 126.96984432 5.5078125 119.5 C11.34890934 112.06406443 13.40741319 102.92552121 15.59179688 93.89941406 C17.04856363 87.92667038 18.94303348 82.24231566 21.1328125 76.5 C24.37090667 67.99331787 27.28280939 59.56502302 28.5078125 50.5 C31.99675976 49.52767044 33.98164888 49.01661538 37.5078125 49.5 C40.54849725 51.56529076 43.09755828 53.84080447 45.734375 56.3984375 C49.09288175 58.94333417 51.34654203 59.21756083 55.5078125 59.5 C56.73371094 59.63535156 56.73371094 59.63535156 57.984375 59.7734375 C62.25293017 59.97522374 64.01620666 59.84412409 67.6328125 57.3125 C69.77914457 54.73598847 69.77914457 54.73598847 69.27978516 52.16967773 C67.79210393 47.02489777 65.25152667 42.34867911 62.8828125 37.5625 C62.37363281 36.49064453 61.86445313 35.41878906 61.33984375 34.31445312 C56.83402182 25.19552779 52.32981766 20.07830068 42.74633789 16.4831543 C41.90449951 16.19996338 41.06266113 15.91677246 40.1953125 15.625 C38.8484436 15.17024292 38.8484436 15.17024292 37.47436523 14.70629883 C27.81521144 11.78509416 18.43780876 12.07094569 8.4453125 12.38671875 C2.55204102 12.56718168 -2.78227359 11.96141577 -8.58984375 10.94921875 C-14.73426506 9.99819796 -20.84984351 10.21373974 -26.9921875 11.0625 C-30.4921875 11.5 -30.4921875 11.5 -33.4921875 10.5 C-70.19414516 8.38805901 -70.19414516 8.38805901 -102.640625 21.46875 Z " fill="#000000" transform="translate(117.4921875,31.5)"/>
<path d="M0 0 C3.3 1.65 6.6 3.3 10 5 C10.03738281 6.80984375 10.07476562 8.6196875 10.11328125 10.484375 C10.17899155 12.90626898 10.24543709 15.32814309 10.3125 17.75 C10.33505859 18.93722656 10.35761719 20.12445313 10.38085938 21.34765625 C10.4035331 34.68959238 10.4035331 34.68959238 16.08251953 46.10595703 C18.33913991 47.81761299 20.66055778 49.40404108 23 51 C31.14115313 57.50657462 32.19975232 66.27285526 34 76 C34.19851562 76.83144531 34.39703125 77.66289063 34.6015625 78.51953125 C35.16341455 82.01733569 35.06763781 85.47142534 35 89 C35.00596191 89.67450195 35.01192383 90.34900391 35.01806641 91.04394531 C35.02233776 96.95264831 35.00975993 102.8557843 30.78125 107.3671875 C23.69698526 111.26353311 16.18932593 111.56718031 8.25 111.75 C7.2803833 111.77835937 6.3107666 111.80671875 5.31176758 111.8359375 C-0.78571082 111.75261727 -5.30315543 110.66783214 -10.22705078 106.96142578 C-13.50469933 103.33534089 -13.9702407 99.28403083 -14.5625 94.5625 C-14.71267578 93.64662109 -14.86285156 92.73074219 -15.01757812 91.78710938 C-16.76839779 80.54797666 -16.52978413 67.2833884 -10.31640625 57.29296875 C-8.62970119 55.39587898 -6.8652912 53.71803137 -5 52 C-1.48134187 48.26808987 -0.46710327 46.06984395 -0.5625 40.9375 C-0.82696234 32.57860101 -2.90340008 25.02275263 -5.6875 17.1875 C-6.99936143 13.25900685 -7.78593695 10.16546584 -7 6 C-4.8491972 3.58168441 -2.6389116 1.93206028 0 0 Z " fill="#3EC1FC" transform="translate(88,47)"/>
<path d="M0 0 C0.75925781 0.23138672 1.51851562 0.46277344 2.30078125 0.70117188 C10.78697618 3.49825678 15.16170071 7.59269889 19.4375 15.4453125 C20.60003895 17.76775425 21.74552802 20.09879833 22.875 22.4375 C23.47667894 23.62950546 24.07953558 24.82091722 24.68359375 26.01171875 C28.94744436 34.66743395 28.94744436 34.66743395 28.625 37.53857422 C27.44351073 40.33307326 26.38731318 41.55388078 23.875 43.3125 C20.83296276 43.7420333 17.92637542 43.60197729 14.875 43.3125 C13.73289063 43.23515625 12.59078125 43.1578125 11.4140625 43.078125 C7.20708755 42.1680068 5.62291516 40.71753458 2.5625 37.75 C-1.30634889 34.36341759 -3.60477781 32.69098898 -8.8125 32.75 C-10.25526813 32.89135986 -11.69719555 33.06162763 -13.125 33.3125 C-13.51171875 32.2503125 -13.8984375 31.188125 -14.296875 30.09375 C-18.41833538 18.8577532 -21.87428777 10.189855 -30.296875 1.4140625 C-32.125 -0.6875 -32.125 -0.6875 -32.125 -2.6875 C-29.98013921 -2.88581572 -27.83402197 -3.07055531 -25.6875 -3.25 C-23.89505859 -3.40662109 -23.89505859 -3.40662109 -22.06640625 -3.56640625 C-14.26125041 -3.80620787 -7.38120677 -2.46251238 0 0 Z " fill="#3FC1FB" transform="translate(158.125,47.6875)"/>
<path d="M0 0 C0 0.66 0 1.32 0 2 C-1.54107422 2.76570313 -1.54107422 2.76570313 -3.11328125 3.546875 C-15.95069651 10.17909958 -27.19053933 18.74270553 -32 33 C-33.22041103 37.47870806 -34.24166537 41.99478762 -35.203125 46.53515625 C-36 50 -36 50 -37 51 C-39.74678103 51.26358 -41.5078043 51.24802803 -43.9921875 49.99609375 C-50.74369062 44.40719387 -54.47215588 37.28145566 -57 29 C-57.31575118 21.14449335 -54.33376987 15.65730028 -49.1484375 9.96875 C-41.52172602 2.73516798 -33.03998623 1.93715136 -23 1 C-22.2898877 0.93232422 -21.57977539 0.86464844 -20.84814453 0.79492188 C-13.90391609 0.17035222 -6.97045682 -0.14225422 0 0 Z " fill="#3BB9F1" transform="translate(64,43)"/>
<path d="M0 0 C1.33998047 -0.01643555 1.33998047 -0.01643555 2.70703125 -0.03320312 C6.69132192 0.01146381 9.11953509 0.04860155 12.46484375 2.32421875 C14.80473536 6.03822954 14.48739307 9.32001786 13.875 13.5625 C12.29928833 17.73813591 10.38329298 20.77650263 6.875 23.5625 C2.26470518 25.18966288 -3.29930357 25.14285558 -8.125 24.5625 C-11.63601211 22.47083321 -13.93417101 19.98871311 -16.125 16.5625 C-16.62890625 13.94140625 -16.62890625 13.94140625 -16.6875 11.125 C-16.73003906 10.19816406 -16.77257812 9.27132812 -16.81640625 8.31640625 C-16.01137896 5.10994162 -14.72284138 3.49676735 -12.07495117 1.51977539 C-8.2154631 -0.3749351 -4.21413704 -0.11348113 0 0 Z " fill="#02599C" transform="translate(100.125,111.4375)"/>
<path d="M0 0 C0.33 0 0.66 0 1 0 C1.1953125 2.01822917 1.390625 4.03645833 1.5859375 6.0546875 C1.86374749 8.22668245 1.86374749 8.22668245 4 10 C6.57061311 10.64767793 6.57061311 10.64767793 9 11 C7.22972246 6.39727838 5.81300782 3.2870757 2 0 C9.42857143 -0.28571429 9.42857143 -0.28571429 13 2 C13.35915493 8.34507042 13.35915493 8.34507042 11.9375 10.9375 C8.78483383 12.66638145 6.52226599 12.48582979 3 12 C0 9.875 0 9.875 -2 7 C-1.8 1.8 -1.8 1.8 0 0 Z " fill="#39ACE3" transform="translate(168,76)"/>
<!-- eye -->
<path d="M0 0 C0.66 0.66 1.32 1.32 2 2 C1.67028521 5.29714793 1.3773161 6.6226839 -1 9 C-4.625 8.625 -4.625 8.625 -8 8 C-8.6875 5.6875 -8.6875 5.6875 -9 3 C-6.83087664 -0.70026925 -3.97666252 -0.4230492 0 0 Z " fill="#3CBDF8" transform="translate(124,80)"/>
<path d="M0 0 C0 1.98 0 3.96 0 6 C-2.76250036 7.38125018 -4.94731099 7.19079306 -8 7 C-8.66 6.34 -9.32 5.68 -10 5 C-9.875 2.5 -9.875 2.5 -9 0 C-5.67457953 -2.73159539 -3.64235246 -1.82117623 0 0 Z " fill="#3DC0FB" transform="translate(72,85)"/>
<path d="M0 0 C1.45742463 -0.08096803 2.91612807 -0.13917774 4.375 -0.1875 C5.18710938 -0.22230469 5.99921875 -0.25710937 6.8359375 -0.29296875 C7.55007812 -0.19628906 8.26421875 -0.09960938 9 0 C9.66 0.99 10.32 1.98 11 3 C8.36 2.67 5.72 2.34 3 2 C3.825 2.9075 4.65 3.815 5.5 4.75 C8.03294997 7.53624497 8 7.87258261 8 12 C3.49625468 12.36516854 3.49625468 12.36516854 1.34375 10.78125 C-0.39217091 8.48014554 -0.31131194 7.16017456 -0.1875 4.3125 C-0.16042969 3.50425781 -0.13335937 2.69601563 -0.10546875 1.86328125 C-0.07066406 1.24839844 -0.03585938 0.63351563 0 0 Z " fill="#35B7F3" transform="translate(169,75)"/>
<path d="M0 0 C6.625 -0.25 6.625 -0.25 10 2 C10.1875 5.125 10.1875 5.125 10 8 C6.83475549 7.66086666 6.02399882 7.02752805 3.875 4.5625 C3.25625 3.716875 2.6375 2.87125 2 2 C1.34 1.34 0.68 0.68 0 0 Z " fill="#208DCC" transform="translate(170,76)"/>
<path d="M0 0 C2.31 0 4.62 0 7 0 C7 0.99 7 1.98 7 3 C4.625 3.1875 4.625 3.1875 2 3 C1.34 2.01 0.68 1.02 0 0 Z " fill="#3EC2FD" transform="translate(170,84)"/>
<path d="M0 0 C2.64 0 5.28 0 8 0 C8 0.66 8 1.32 8 2 C6.35 2.66 4.7 3.32 3 4 C3 3.01 3 2.02 3 1 C2.01 0.67 1.02 0.34 0 0 Z " fill="#2E9ACE" transform="translate(56,43)"/>
</svg>
